<?xml version="1.0" encoding="UTF-8"?>
<svg xmlns="http://www.w3.org/2000/svg" xmlns:xlink="http://www.w3.org/1999/xlink" viewBox="0 0 52 52" width="52px" height="52px">
<g id="surface13740175">
<path style=" stroke:none;fill-rule:nonzero;fill:rgb(100%,100%,100%);fill-opacity:1;" d="M 43.289062 11.199219 C 39.148438 7.867188 32.601562 7.304688 32.320312 7.285156 C 31.886719 7.246094 31.472656 7.492188 31.292969 7.894531 C 31.277344 7.917969 31.136719 8.246094 30.976562 8.757812 C 33.714844 9.222656 37.078125 10.152344 40.121094 12.042969 C 40.609375 12.34375 40.757812 12.984375 40.457031 13.472656 C 40.257812 13.792969 39.921875 13.96875 39.574219 13.96875 C 39.386719 13.96875 39.195312 13.914062 39.023438 13.808594 C 33.792969 10.5625 27.257812 10.398438 26 10.398438 C 24.742188 10.398438 18.203125 10.5625 12.976562 13.808594 C 12.488281 14.113281 11.847656 13.960938 11.546875 13.476562 C 11.242188 12.984375 11.390625 12.347656 11.878906 12.042969 C 14.921875 10.15625 18.285156 9.222656 21.023438 8.761719 C 20.863281 8.246094 20.722656 7.921875 20.710938 7.894531 C 20.527344 7.492188 20.117188 7.238281 19.679688 7.285156 C 19.398438 7.304688 12.851562 7.867188 8.652344 11.246094 C 6.464844 13.273438 2.078125 25.117188 2.078125 35.359375 C 2.078125 35.542969 2.128906 35.71875 2.21875 35.875 C 5.242188 41.191406 13.492188 42.578125 15.371094 42.640625 C 15.378906 42.640625 15.394531 42.640625 15.40625 42.640625 C 15.738281 42.640625 16.050781 42.480469 16.246094 42.214844 L 18.148438 39.597656 C 13.015625 38.273438 10.394531 36.023438 10.246094 35.886719 C 9.816406 35.511719 9.773438 34.851562 10.15625 34.421875 C 10.535156 33.992188 11.191406 33.949219 11.621094 34.328125 C 11.683594 34.386719 16.511719 38.480469 26 38.480469 C 35.507812 38.480469 40.332031 34.367188 40.382812 34.328125 C 40.8125 33.953125 41.464844 33.992188 41.847656 34.425781 C 42.226562 34.855469 42.183594 35.511719 41.753906 35.886719 C 41.605469 36.023438 38.984375 38.273438 33.851562 39.597656 L 35.753906 42.214844 C 35.949219 42.480469 36.261719 42.640625 36.59375 42.640625 C 36.605469 42.640625 36.621094 42.640625 36.628906 42.640625 C 38.507812 42.578125 46.757812 41.191406 49.78125 35.875 C 49.871094 35.71875 49.921875 35.542969 49.921875 35.359375 C 49.921875 25.117188 45.535156 13.273438 43.289062 11.199219 Z M 19.238281 31.199219 C 17.230469 31.199219 15.601562 29.339844 15.601562 27.039062 C 15.601562 24.742188 17.230469 22.878906 19.238281 22.878906 C 21.25 22.878906 22.878906 24.742188 22.878906 27.039062 C 22.878906 29.339844 21.25 31.199219 19.238281 31.199219 Z M 32.761719 31.199219 C 30.75 31.199219 29.121094 29.339844 29.121094 27.039062 C 29.121094 24.742188 30.75 22.878906 32.761719 22.878906 C 34.769531 22.878906 36.398438 24.742188 36.398438 27.039062 C 36.398438 29.339844 34.769531 31.199219 32.761719 31.199219 Z M 32.761719 31.199219 "/>
</g>
</svg>
